<svg xmlns="http://www.w3.org/2000/svg" version="1.1" xmlns:xlink="http://www.w3.org/1999/xlink" xmlns:svgjs="http://svgjs.com/svgjs" width="1920" height="1080" preserveAspectRatio="none" viewBox="0 0 1920 1080"><g mask="url(&quot;#SvgjsMask1108&quot;)" fill="none"><rect width="1920" height="1080" x="0" y="0" fill="url(#SvgjsLinearGradient1109)"></rect><path d="M1208.6711573875345 556.8688953184561L1287.7382688402097 734.9129951481159 1390.224609131078 598.9090279782915z" fill="rgba(127, 227, 249, 0.53)" class="triangle-float1"></path><path d="M1021.3800189189709 658.3445221969307L958.6348047399588 503.0446674676682 803.3349500106963 565.7898816466803 866.0801641897084 721.0897363759428z" fill="rgba(127, 227, 249, 0.53)" class="triangle-float2"></path><path d="M1221.5784956686794 562.5588179403242L1004.3457804721005 432.03223421427003 873.8191967460464 649.2649494108489 1091.0519119426253 779.791533136903z" fill="rgba(127, 227, 249, 0.53)" class="triangle-float2"></path><path d="M245.25466180471406 474.89595813753783L-46.53303749280829 464.70650714984174-56.72248848050438 756.4942064473641 235.06521081701794 766.6836574350602z" fill="rgba(127, 227, 249, 0.53)" class="triangle-float1"></path><path d="M78.61998267747333 127.49480962651053L153.0983603499525 207.36309141587816 235.66159419776432 55.711384012475634z" fill="rgba(127, 227, 249, 0.53)" class="triangle-float2"></path><path d="M1322.533507408791 24.864206212791814L1318.8716464457048 234.65208028516747 1528.6595205180806 238.3139412482535 1532.3213814811666 28.526067175877866z" fill="rgba(127, 227, 249, 0.53)" class="triangle-float3"></path><path d="M612.4384244648311 865.6204025813269L709.721406344637 1065.0800740497823 909.1810778130925 967.7970921699764 811.8980959332865 768.3374207015208z" fill="rgba(127, 227, 249, 0.53)" class="triangle-float1"></path><path d="M1462.5621105163932 491.50170656451843L1291.1623881962062 630.2984649934638 1601.3588689453386 662.9014288847054z" fill="rgba(127, 227, 249, 0.53)" class="triangle-float3"></path><path d="M539.0116874051535 720.130176057477L749.4167401744535 543.5793738809211 572.8659379978976 333.1743211116211 362.4608852285976 509.725123288177z" fill="rgba(127, 227, 249, 0.53)" class="triangle-float2"></path><path d="M510.71021653272925 42.56985148246631L393.89657188845445-78.39421861103969 272.93250179494845 38.41942603323509 389.74614643922325 159.3834961267411z" fill="rgba(127, 227, 249, 0.53)" class="triangle-float1"></path><path d="M1725.571762966123 336.78584543901474L1554.65694146737 479.9230596260714 1736.593557661667 549.761983239104z" fill="rgba(127, 227, 249, 0.53)" class="triangle-float2"></path><path d="M1749.9186759893519 1156.6356611298947L1992.2226379696592 1165.0971019331464 2000.6840787729109 922.793139952839 1758.3801167926035 914.3316991495874z" fill="rgba(127, 227, 249, 0.53)" class="triangle-float3"></path><path d="M1402.3355486697058 355.4597035808455L1132.2003523805943 229.18002928853016 1150.3836562988251 489.2133900675135z" fill="rgba(127, 227, 249, 0.53)" class="triangle-float1"></path><path d="M-167.85130064120654 1001.8246581061387L120.82002167549109 1057.936678977252 176.93204254660458 769.2653566605545-111.73927977009305 713.1533357894411z" fill="rgba(127, 227, 249, 0.53)" class="triangle-float3"></path><path d="M172.6856688646152 230.30898774959758L330.635935582553-42.667771480441274 54.98612897934214-47.47925675215083z" fill="rgba(127, 227, 249, 0.53)" class="triangle-float3"></path><path d="M1241.898984524455 850.9045212039588L974.1381848079577 719.9928210790498 987.7739232713988 980.1782105380798z" fill="rgba(127, 227, 249, 0.53)" class="triangle-float2"></path><path d="M1764.221068721626 213.36248091138663L1902.5433373278233 497.65248179193975 2061.062091894294 271.2642384265918z" fill="rgba(127, 227, 249, 0.53)" class="triangle-float1"></path></g><defs><mask id="SvgjsMask1108"><rect width="1920" height="1080" fill="#ffffff"></rect></mask><linearGradient x1="10.94%" y1="-19.44%" x2="89.06%" y2="119.44%" gradientUnits="userSpaceOnUse" id="SvgjsLinearGradient1109"><stop stop-color="rgba(183, 239, 251, 1)" offset="0"></stop><stop stop-color="rgba(239, 252, 254, 1)" offset="1"></stop></linearGradient><style>
            @keyframes float1 {
                0%{transform: translate(0, 0)}
                50%{transform: translate(-10px, 0)}
                100%{transform: translate(0, 0)}
            }

            .triangle-float1 {
                animation: float1 5s infinite;
            }

            @keyframes float2 {
                0%{transform: translate(0, 0)}
                50%{transform: translate(-5px, -5px)}
                100%{transform: translate(0, 0)}
            }

            .triangle-float2 {
                animation: float2 4s infinite;
            }

            @keyframes float3 {
                0%{transform: translate(0, 0)}
                50%{transform: translate(0, -10px)}
                100%{transform: translate(0, 0)}
            }

            .triangle-float3 {
                animation: float3 6s infinite;
            }
        </style></defs></svg>